<?xml version="1.0" encoding="UTF-8" standalone="no"?>
<!-- Created with Inkscape (http://www.inkscape.org/) -->

<svg
   xmlns:dc="http://purl.org/dc/elements/1.1/"
   xmlns:cc="http://creativecommons.org/ns#"
   xmlns:rdf="http://www.w3.org/1999/02/22-rdf-syntax-ns#"
   xmlns:svg="http://www.w3.org/2000/svg"
   xmlns="http://www.w3.org/2000/svg"
   xmlns:sodipodi="http://sodipodi.sourceforge.net/DTD/sodipodi-0.dtd"
   xmlns:inkscape="http://www.inkscape.org/namespaces/inkscape"
   width="720"
   height="180"
   viewBox="0 0 190.5 47.625001"
   version="1.1"
   id="svg8"
   inkscape:version="0.92.4 (5da689c313, 2019-01-14)"
   sodipodi:docname="structure-2-3.svg">
  <defs
     id="defs2" />
  <sodipodi:namedview
     id="base"
     pagecolor="#ffffff"
     bordercolor="#666666"
     borderopacity="1.0"
     inkscape:pageopacity="0.0"
     inkscape:pageshadow="2"
     inkscape:zoom="1.4"
     inkscape:cx="362.04098"
     inkscape:cy="94.237126"
     inkscape:document-units="px"
     inkscape:current-layer="text819"
     showgrid="true"
     inkscape:window-width="1680"
     inkscape:window-height="987"
     inkscape:window-x="1672"
     inkscape:window-y="-8"
     inkscape:window-maximized="1"
     units="px"
     showguides="true"
     inkscape:guide-bbox="true">
    <inkscape:grid
       type="xygrid"
       id="grid840"
       spacingx="3.96875"
       spacingy="3.96875"
       empspacing="6" />
  </sodipodi:namedview>
  <metadata
     id="metadata5">
    <rdf:RDF>
      <cc:Work
         rdf:about="">
        <dc:format>image/svg+xml</dc:format>
        <dc:type
           rdf:resource="http://purl.org/dc/dcmitype/StillImage" />
        <dc:title />
      </cc:Work>
    </rdf:RDF>
  </metadata>
  <g
     inkscape:label="Layer 1"
     inkscape:groupmode="layer"
     id="layer1"
     transform="translate(0,-249.37499)">
    <rect
       style="fill:#800080;fill-opacity:1;stroke:none;stroke-width:0.40000004;stroke-miterlimit:4;stroke-dasharray:none;stroke-opacity:1"
       id="rect815"
       width="31.75"
       height="15.875002"
       x="79.375"
       y="249.37498" />
    <g
       aria-label="Main"
       transform="scale(0.9557745,1.0462719)"
       style="font-style:normal;font-weight:normal;font-size:8.06456375px;line-height:1.25;font-family:sans-serif;letter-spacing:0px;word-spacing:0px;fill:#000000;fill-opacity:1;stroke:none;stroke-width:0.26458332"
       id="text819">
      <path
         d="m 96.131123,248.82304 h -0.77968 v -5.05216 l -1.630238,3.43768 h -0.464658 l -1.618426,-3.43768 v 5.05216 h -0.728488 v -5.86334 h 1.063199 l 1.563297,3.26441 1.512106,-3.26441 h 1.082888 z"
         style="fill:#ffffff;stroke-width:0.26458332"
         id="path848" />
      <path
         d="m 101.07303,248.82304 h -0.73636 v -0.46859 q -0.0984,0.0669 -0.26777,0.18901 -0.165388,0.11814 -0.322899,0.18901 -0.185076,0.0906 -0.42528,0.14964 -0.240204,0.063 -0.563102,0.063 -0.594604,0 -1.00807,-0.39377 -0.413467,-0.39378 -0.413467,-1.00414 0,-0.50009 0.21264,-0.80724 0.216578,-0.31108 0.614293,-0.48828 0.401653,-0.1772 0.964755,-0.24021 0.563102,-0.063 1.2089,-0.0945 v -0.1142 q 0,-0.25202 -0.0906,-0.4174 -0.0866,-0.16539 -0.252019,-0.2599 -0.157511,-0.0906 -0.378027,-0.12207 -0.220515,-0.0315 -0.460719,-0.0315 -0.291396,0 -0.649733,0.0788 -0.358338,0.0748 -0.740302,0.22051 h -0.03938 v -0.75211 q 0.216578,-0.0591 0.626106,-0.12995 0.409529,-0.0709 0.807244,-0.0709 0.464658,0 0.807244,0.0788 0.346524,0.0748 0.598544,0.2599 0.24808,0.18114 0.37802,0.46859 0.12995,0.28746 0.12995,0.71274 z m -0.73636,-1.08288 v -1.22465 q -0.338652,0.0197 -0.799371,0.0591 -0.456782,0.0394 -0.724551,0.1142 -0.31896,0.0906 -0.515848,0.28352 -0.196889,0.18901 -0.196889,0.52372 0,0.37803 0.228391,0.57098 0.228391,0.18901 0.696986,0.18901 0.38984,0 0.712737,-0.14963 0.322895,-0.15357 0.598545,-0.36621 z"
         style="fill:#ffffff;stroke-width:0.26458332"
         id="path850" />
      <path
         d="M 103.30181,243.68818 H 102.467 v -0.76786 h 0.83481 z m -0.0473,5.13486 h -0.7403 v -4.39849 h 0.7403 z"
         style="fill:#ffffff;stroke-width:0.26458332"
         id="path852" />
      <path
         d="m 108.40517,248.82304 h -0.7403 v -2.50442 q 0,-0.30321 -0.0354,-0.56704 -0.0354,-0.26777 -0.12995,-0.41741 -0.0984,-0.16538 -0.28352,-0.24414 -0.18507,-0.0827 -0.48041,-0.0827 -0.30321,0 -0.63398,0.14964 -0.33077,0.14963 -0.63398,0.38196 v 3.2841 h -0.7403 v -4.39849 h 0.7403 v 0.48828 q 0.34652,-0.28745 0.71667,-0.4489 0.37015,-0.16145 0.75999,-0.16145 0.71274,0 1.08683,0.42922 0.37409,0.42921 0.37409,1.23646 z"
         style="fill:#ffffff;stroke-width:0.26458332"
         id="path854" />
    </g>
    <path
       style="fill:#800080;fill-opacity:1;stroke:none;stroke-width:0.40000007;stroke-miterlimit:4;stroke-dasharray:none;stroke-opacity:1"
       d="m 23.497971,265.25 h 32.064525 v 15.87499 H 23.497971 Z"
       id="rect815-2" />
    <g
       aria-label="Lib 1"
       transform="scale(0.95326968,1.0490211)"
       style="font-style:normal;font-weight:normal;font-size:5.89717865px;line-height:1.25;font-family:sans-serif;letter-spacing:0px;word-spacing:0px;fill:#ffffff;fill-opacity:1;stroke:none;stroke-width:0.26458332"
       id="text819-8">
      <path
         d="m 37.580749,262.61697 h -2.712471 v -4.28754 h 0.570137 v 3.78076 h 2.142334 z"
         style="fill:#ffffff;fill-opacity:1;stroke-width:0.26458332"
         id="path899" />
      <path
         d="M 38.68935,258.86213 H 38.0789 v -0.5615 h 0.61045 z m -0.03455,3.75484 h -0.541342 v -3.21638 h 0.541342 z"
         style="fill:#ffffff;fill-opacity:1;stroke-width:0.26458332"
         id="path901" />
      <path
         d="m 42.562253,260.98431 q 0,0.40313 -0.115179,0.72563 -0.1123,0.3225 -0.305225,0.54134 -0.204443,0.22748 -0.449199,0.34266 -0.244756,0.1123 -0.538463,0.1123 -0.273551,0 -0.477994,-0.0662 -0.204444,-0.0634 -0.403128,-0.17277 l -0.03455,0.14973 h -0.506788 v -4.48047 h 0.541342 v 1.60099 q 0.227479,-0.18716 0.483753,-0.30522 0.256274,-0.12094 0.575896,-0.12094 0.570138,0 0.898399,0.43768 0.33114,0.43768 0.33114,1.2353 z m -0.558619,0.0144 q 0,-0.5759 -0.190046,-0.87249 -0.190046,-0.29946 -0.61333,-0.29946 -0.236117,0 -0.477994,0.10366 -0.241876,0.10078 -0.449199,0.26203 v 1.84287 q 0.230359,0.10366 0.394489,0.14397 0.16701,0.0403 0.377212,0.0403 0.449199,0 0.702594,-0.29371 0.256274,-0.29659 0.256274,-0.92719 z"
         style="fill:#ffffff;fill-opacity:1;stroke-width:0.26458332"
         id="path903" />
      <path
         d="M 48.067822,262.61697 H 45.74696 v -0.43768 h 0.892639 v -2.87372 H 45.74696 v -0.39161 q 0.181407,0 0.38873,-0.0288 0.207322,-0.0317 0.313863,-0.0893 0.132456,-0.072 0.207323,-0.18141 0.07775,-0.1123 0.08926,-0.29946 h 0.446319 v 3.86426 h 0.875363 z"
         style="fill:#ffffff;fill-opacity:1;stroke-width:0.26458332"
         id="path905" />
    </g>
    <path
       style="fill:#800080;stroke:#800080;stroke-width:0.5291667;stroke-linecap:round;stroke-linejoin:miter;stroke-miterlimit:4;stroke-dasharray:none;stroke-opacity:1"
       d="m 95.25,265.24999 -39.6875,7.9375"
       id="path842"
       inkscape:connector-curvature="0"
       sodipodi:nodetypes="cc" />
    <path
       style="fill:#800080;fill-opacity:1;stroke:none;stroke-width:0.40000001;stroke-miterlimit:4;stroke-dasharray:none;stroke-opacity:1"
       d="M 3.9687507,285.09375 H 23.812501 V 297 H 3.9687507 Z"
       id="rect815-2-6" />
    <g
       aria-label="Lib 1-1"
       transform="scale(1.0053345,0.99469381)"
       style="font-style:normal;font-weight:normal;font-size:4.25193977px;line-height:1.25;font-family:sans-serif;letter-spacing:0px;word-spacing:0px;fill:#000000;fill-opacity:1;stroke:none;stroke-width:0.26458332"
       id="text819-8-2">
      <path
         d="M 8.693,294.18253 H 6.7372738 v -3.09138 H 7.14835 v 2.72597 H 8.693 Z"
         style="fill:#ffffff;stroke-width:0.26458332"
         id="path885" />
      <path
         d="M 9.4923149,291.47524 H 9.0521727 v -0.40485 h 0.4401422 z m -0.024914,2.70729 H 9.0770864 v -2.31906 h 0.3903148 z"
         style="fill:#ffffff;stroke-width:0.26458332"
         id="path887" />
      <path
         d="m 12.284727,293.00535 q 0,0.29066 -0.08305,0.52319 -0.08097,0.23253 -0.220071,0.39032 -0.147406,0.16401 -0.323878,0.24706 -0.176473,0.081 -0.388239,0.081 -0.197234,0 -0.34464,-0.0478 -0.147406,-0.0457 -0.29066,-0.12456 l -0.02491,0.10796 h -0.365401 v -3.23048 h 0.390314 v 1.15433 q 0.164016,-0.13495 0.348792,-0.22007 0.184777,-0.0872 0.415229,-0.0872 0.411076,0 0.647756,0.31558 0.238757,0.31557 0.238757,0.89066 z m -0.402772,0.0104 q 0,-0.41522 -0.137025,-0.62907 -0.137026,-0.21592 -0.442219,-0.21592 -0.170243,0 -0.344639,0.0747 -0.174396,0.0727 -0.323879,0.18893 v 1.32873 q 0.166092,0.0747 0.284432,0.10381 0.120416,0.0291 0.271975,0.0291 0.323878,0 0.506578,-0.21177 0.184777,-0.21384 0.184777,-0.66852 z"
         style="fill:#ffffff;stroke-width:0.26458332"
         id="path889" />
      <path
         d="M 16.254311,294.18253 H 14.58094 v -0.31558 h 0.643605 v -2.07199 H 14.58094 v -0.28235 q 0.130797,0 0.28028,-0.0208 0.149482,-0.0228 0.226299,-0.0644 0.0955,-0.0519 0.149482,-0.13079 0.05606,-0.081 0.06436,-0.21592 h 0.321802 v 2.78618 h 0.631147 z"
         style="fill:#ffffff;stroke-width:0.26458332"
         id="path891" />
      <path
         d="m 18.324225,293.01781 h -1.295513 v -0.37578 h 1.295513 z"
         style="fill:#ffffff;stroke-width:0.26458332"
         id="path893" />
      <path
         d="m 20.896565,294.18253 h -1.673371 v -0.31558 h 0.643604 v -2.07199 h -0.643604 v -0.28235 q 0.130797,0 0.280279,-0.0208 0.149483,-0.0228 0.2263,-0.0644 0.0955,-0.0519 0.149482,-0.13079 0.05606,-0.081 0.06436,-0.21592 h 0.321802 v 2.78618 h 0.631147 z"
         style="fill:#ffffff;stroke-width:0.26458332"
         id="path895" />
    </g>
    <path
       style="fill:#800080;fill-opacity:1;stroke:none;stroke-width:0.40000001;stroke-miterlimit:4;stroke-dasharray:none;stroke-opacity:1"
       d="m 29.765625,285.09375 h 19.84375 V 297 h -19.84375 z"
       id="rect815-2-6-1" />
    <g
       aria-label="Lib 1-2"
       transform="scale(1.0053345,0.99469381)"
       style="font-style:normal;font-weight:normal;font-size:4.25193977px;line-height:1.25;font-family:sans-serif;letter-spacing:0px;word-spacing:0px;fill:#000000;fill-opacity:1;stroke:none;stroke-width:0.26458332"
       id="text819-8-2-6">
      <path
         d="m 34.352991,294.18253 h -1.955726 v -3.09138 h 0.411076 v 2.72597 h 1.54465 z"
         style="fill:#ffffff;stroke-width:0.26458332"
         id="path871" />
      <path
         d="m 35.152306,291.47524 h -0.440142 v -0.40485 h 0.440142 z m -0.02491,2.70729 h -0.390314 v -2.31906 h 0.390314 z"
         style="fill:#ffffff;stroke-width:0.26458332"
         id="path873" />
      <path
         d="m 37.944718,293.00535 q 0,0.29066 -0.08305,0.52319 -0.08097,0.23253 -0.220071,0.39032 -0.147406,0.16401 -0.323878,0.24706 -0.176472,0.081 -0.388239,0.081 -0.197233,0 -0.344639,-0.0478 -0.147407,-0.0457 -0.29066,-0.12456 l -0.02491,0.10796 H 35.90387 v -3.23048 h 0.390315 v 1.15433 q 0.164015,-0.13495 0.348792,-0.22007 0.184776,-0.0872 0.415228,-0.0872 0.411076,0 0.647757,0.31558 0.238756,0.31557 0.238756,0.89066 z m -0.402772,0.0104 q 0,-0.41522 -0.137025,-0.62907 -0.137026,-0.21592 -0.442218,-0.21592 -0.170244,0 -0.34464,0.0747 -0.174396,0.0727 -0.323878,0.18893 v 1.32873 q 0.166091,0.0747 0.284431,0.10381 0.120416,0.0291 0.271975,0.0291 0.323878,0 0.506579,-0.21177 0.184776,-0.21384 0.184776,-0.66852 z"
         style="fill:#ffffff;stroke-width:0.26458332"
         id="path875" />
      <path
         d="m 41.914302,294.18253 h -1.67337 v -0.31558 h 0.643604 v -2.07199 h -0.643604 v -0.28235 q 0.130797,0 0.280279,-0.0208 0.149482,-0.0228 0.226299,-0.0644 0.0955,-0.0519 0.149483,-0.13079 0.05606,-0.081 0.06436,-0.21592 h 0.321802 v 2.78618 h 0.631147 z"
         style="fill:#ffffff;stroke-width:0.26458332"
         id="path877" />
      <path
         d="m 43.984216,293.01781 h -1.295513 v -0.37578 h 1.295513 z"
         style="fill:#ffffff;stroke-width:0.26458332"
         id="path879" />
      <path
         d="m 46.733028,294.18253 h -2.092751 v -0.43392 q 0.217995,-0.18685 0.43599,-0.3737 0.220071,-0.18686 0.409,-0.37163 0.398619,-0.38617 0.546025,-0.61247 0.147406,-0.22837 0.147406,-0.49204 0,-0.24083 -0.159863,-0.37578 -0.157786,-0.13703 -0.442218,-0.13703 -0.188929,0 -0.409,0.0664 -0.220071,0.0664 -0.429761,0.20346 h -0.02076 v -0.43599 q 0.147406,-0.0727 0.392391,-0.13287 0.247061,-0.0602 0.477513,-0.0602 0.475436,0 0.745335,0.23045 0.269898,0.22838 0.269898,0.62077 0,0.17647 -0.04568,0.3301 -0.0436,0.15156 -0.130797,0.28859 -0.08097,0.12872 -0.191005,0.25329 -0.107959,0.12457 -0.26367,0.27612 -0.222147,0.218 -0.458827,0.42354 -0.236681,0.20346 -0.442219,0.37786 h 1.66299 z"
         style="fill:#ffffff;stroke-width:0.26458332"
         id="path881" />
    </g>
    <path
       style="fill:#800080;fill-opacity:1;stroke:none;stroke-width:0.40000001;stroke-miterlimit:4;stroke-dasharray:none;stroke-opacity:1"
       d="M 55.5625,285.09375 H 75.40625 V 297 H 55.5625 Z"
       id="rect815-2-6-8" />
    <g
       aria-label="Lib 1-3"
       transform="scale(1.0053345,0.99469381)"
       style="font-style:normal;font-weight:normal;font-size:4.25193977px;line-height:1.25;font-family:sans-serif;letter-spacing:0px;word-spacing:0px;fill:#000000;fill-opacity:1;stroke:none;stroke-width:0.26458332"
       id="text819-8-2-8">
      <path
         d="m 60.012984,294.18253 h -1.955727 v -3.09138 h 0.411077 v 2.72597 h 1.54465 z"
         style="fill:#ffffff;stroke-width:0.26458332"
         id="path857" />
      <path
         d="m 60.812298,291.47524 h -0.440142 v -0.40485 h 0.440142 z m -0.02491,2.70729 H 60.39707 v -2.31906 h 0.390315 z"
         style="fill:#ffffff;stroke-width:0.26458332"
         id="path859" />
      <path
         d="m 63.60471,293.00535 q 0,0.29066 -0.08305,0.52319 -0.08097,0.23253 -0.220071,0.39032 -0.147406,0.16401 -0.323878,0.24706 -0.176472,0.081 -0.388239,0.081 -0.197233,0 -0.344639,-0.0478 -0.147406,-0.0457 -0.29066,-0.12456 l -0.02491,0.10796 h -0.365401 v -3.23048 h 0.390315 v 1.15433 q 0.164015,-0.13495 0.348792,-0.22007 0.184776,-0.0872 0.415228,-0.0872 0.411076,0 0.647757,0.31558 0.238756,0.31557 0.238756,0.89066 z m -0.402772,0.0104 q 0,-0.41522 -0.137025,-0.62907 -0.137025,-0.21592 -0.442218,-0.21592 -0.170244,0 -0.34464,0.0747 -0.174396,0.0727 -0.323878,0.18893 v 1.32873 q 0.166091,0.0747 0.284431,0.10381 0.120417,0.0291 0.271975,0.0291 0.323878,0 0.506579,-0.21177 0.184776,-0.21384 0.184776,-0.66852 z"
         style="fill:#ffffff;stroke-width:0.26458332"
         id="path861" />
      <path
         d="m 67.574295,294.18253 h -1.673371 v -0.31558 h 0.643604 v -2.07199 h -0.643604 v -0.28235 q 0.130797,0 0.280279,-0.0208 0.149482,-0.0228 0.2263,-0.0644 0.0955,-0.0519 0.149482,-0.13079 0.05606,-0.081 0.06436,-0.21592 h 0.321802 v 2.78618 h 0.631148 z"
         style="fill:#ffffff;stroke-width:0.26458332"
         id="path863" />
      <path
         d="m 69.644209,293.01781 h -1.295513 v -0.37578 h 1.295513 z"
         style="fill:#ffffff;stroke-width:0.26458332"
         id="path865" />
      <path
         d="m 72.121046,292.69393 q 0.09965,0.0893 0.164015,0.22422 0.06436,0.13495 0.06436,0.3488 0,0.21176 -0.07682,0.38824 -0.07682,0.17647 -0.215918,0.30726 -0.155711,0.14533 -0.367478,0.21592 -0.20969,0.0685 -0.460903,0.0685 -0.257442,0 -0.506579,-0.0623 -0.249137,-0.0602 -0.409,-0.13287 v -0.43392 h 0.03114 q 0.176472,0.11627 0.415229,0.19309 0.238756,0.0768 0.460903,0.0768 0.130797,0 0.278203,-0.0436 0.147406,-0.0436 0.238757,-0.12872 0.0955,-0.0914 0.141177,-0.20138 0.04775,-0.11004 0.04775,-0.27821 0,-0.16609 -0.05398,-0.27405 -0.0519,-0.11003 -0.14533,-0.17232 -0.09343,-0.0644 -0.2263,-0.0872 -0.132873,-0.0249 -0.286507,-0.0249 h -0.186853 v -0.34464 h 0.14533 q 0.315574,0 0.502426,-0.13079 0.188929,-0.13288 0.188929,-0.38617 0,-0.11211 -0.04775,-0.19515 -0.04775,-0.0851 -0.132873,-0.13911 -0.08927,-0.054 -0.191005,-0.0747 -0.101731,-0.0208 -0.230452,-0.0208 -0.197234,0 -0.419381,0.0706 -0.222147,0.0706 -0.419381,0.19931 H 70.402 v -0.43391 q 0.147406,-0.0727 0.392391,-0.13288 0.247061,-0.0623 0.477513,-0.0623 0.226299,0 0.398619,0.0415 0.17232,0.0415 0.311421,0.13288 0.149483,0.0996 0.2263,0.24083 0.07682,0.14118 0.07682,0.3301 0,0.25745 -0.1827,0.45053 -0.180625,0.191 -0.427686,0.24083 v 0.0291 q 0.09966,0.0166 0.228376,0.0706 0.128721,0.0519 0.217995,0.1308 z"
         style="fill:#ffffff;stroke-width:0.26458332"
         id="path867" />
    </g>
    <path
       style="fill:#800080;stroke:#800080;stroke-width:0.5291667;stroke-linecap:round;stroke-linejoin:miter;stroke-miterlimit:4;stroke-dasharray:none;stroke-opacity:1"
       d="m 39.422917,280.59582 -25.664584,5.02709"
       id="path842-5"
       inkscape:connector-curvature="0"
       sodipodi:nodetypes="cc" />
    <path
       style="fill:#800080;stroke:#800080;stroke-width:0.5291667;stroke-linecap:round;stroke-linejoin:miter;stroke-miterlimit:4;stroke-dasharray:none;stroke-opacity:1"
       d="m 40.745833,280.59582 25.135417,5.02709"
       id="path842-5-3"
       inkscape:connector-curvature="0"
       sodipodi:nodetypes="cc" />
    <path
       style="fill:#800080;stroke:#800080;stroke-width:0.5291667;stroke-linecap:round;stroke-linejoin:miter;stroke-miterlimit:4;stroke-dasharray:none;stroke-opacity:1"
       d="m 39.6875,281.12499 v 3.96875"
       id="path842-5-3-3"
       inkscape:connector-curvature="0"
       sodipodi:nodetypes="cc" />
    <path
       style="fill:#800080;fill-opacity:1;stroke:none;stroke-width:0.40000007;stroke-miterlimit:4;stroke-dasharray:none;stroke-opacity:1"
       d="m 134.62297,265.25 h 32.06453 v 15.87499 h -32.06453 z"
       id="rect815-2-2" />
    <g
       aria-label="Lib 2"
       transform="scale(0.95326968,1.0490211)"
       style="font-style:normal;font-weight:normal;font-size:5.89717865px;line-height:1.25;font-family:sans-serif;letter-spacing:0px;word-spacing:0px;fill:#ffffff;fill-opacity:1;stroke:none;stroke-width:0.26458332"
       id="text819-8-9">
      <path
         d="m 154.15321,262.61697 h -2.71248 v -4.28754 h 0.57014 v 3.78076 h 2.14234 z"
         style="fill:#ffffff;fill-opacity:1;stroke-width:0.26458332"
         id="path951" />
      <path
         d="m 155.26181,258.86213 h -0.61045 v -0.5615 h 0.61045 z m -0.0346,3.75484 h -0.54134 v -3.21638 h 0.54134 z"
         style="fill:#ffffff;fill-opacity:1;stroke-width:0.26458332"
         id="path953" />
      <path
         d="m 159.13471,260.98431 q 0,0.40313 -0.11518,0.72563 -0.1123,0.3225 -0.30522,0.54134 -0.20445,0.22748 -0.4492,0.34266 -0.24476,0.1123 -0.53847,0.1123 -0.27355,0 -0.47799,-0.0662 -0.20444,-0.0634 -0.40313,-0.17277 l -0.0345,0.14973 h -0.50679 v -4.48047 h 0.54134 v 1.60099 q 0.22748,-0.18716 0.48375,-0.30522 0.25628,-0.12094 0.5759,-0.12094 0.57014,0 0.8984,0.43768 0.33114,0.43768 0.33114,1.2353 z m -0.55862,0.0144 q 0,-0.5759 -0.19005,-0.87249 -0.19004,-0.29946 -0.61333,-0.29946 -0.23611,0 -0.47799,0.10366 -0.24188,0.10078 -0.4492,0.26203 v 1.84287 q 0.23036,0.10366 0.39449,0.14397 0.16701,0.0403 0.37721,0.0403 0.4492,0 0.7026,-0.29371 0.25627,-0.29659 0.25627,-0.92719 z"
         style="fill:#ffffff;fill-opacity:1;stroke-width:0.26458332"
         id="path955" />
      <path
         d="m 164.88503,262.61697 h -2.90251 v -0.60181 q 0.30234,-0.25915 0.60469,-0.5183 0.30522,-0.25916 0.56726,-0.51543 0.55286,-0.53559 0.7573,-0.84945 0.20444,-0.31674 0.20444,-0.68244 0,-0.33402 -0.22172,-0.52118 -0.21884,-0.19005 -0.61333,-0.19005 -0.26203,0 -0.56726,0.0922 -0.30522,0.0921 -0.59605,0.28218 h -0.0288 v -0.60469 q 0.20444,-0.10078 0.54422,-0.18428 0.34266,-0.0835 0.66228,-0.0835 0.6594,0 1.03373,0.31962 0.37434,0.31675 0.37434,0.86097 0,0.24476 -0.0634,0.45784 -0.0605,0.2102 -0.18141,0.40024 -0.1123,0.17853 -0.26491,0.3513 -0.14973,0.17277 -0.3657,0.38297 -0.3081,0.30235 -0.63636,0.58742 -0.32826,0.28219 -0.61333,0.52406 h 2.30646 z"
         style="fill:#ffffff;fill-opacity:1;stroke-width:0.26458332"
         id="path957" />
    </g>
    <path
       style="fill:#800080;fill-opacity:1;stroke:none;stroke-width:0.40000001;stroke-miterlimit:4;stroke-dasharray:none;stroke-opacity:1"
       d="M 115.09375,285.09375 H 134.9375 V 297 h -19.84375 z"
       id="rect815-2-6-3" />
    <g
       aria-label="Lib 2-1"
       transform="scale(1.0053345,0.99469381)"
       style="font-style:normal;font-weight:normal;font-size:4.25193977px;line-height:1.25;font-family:sans-serif;letter-spacing:0px;word-spacing:0px;fill:#000000;fill-opacity:1;stroke:none;stroke-width:0.26458332"
       id="text819-8-2-62">
      <path
         d="m 119.22836,294.18253 h -1.95572 v -3.09138 h 0.41107 v 2.72597 h 1.54465 z"
         style="fill:#ffffff;stroke-width:0.26458332"
         id="path937" />
      <path
         d="m 120.02768,291.47524 h -0.44015 v -0.40485 h 0.44015 z m -0.0249,2.70729 h -0.39031 v -2.31906 h 0.39031 z"
         style="fill:#ffffff;stroke-width:0.26458332"
         id="path939" />
      <path
         d="m 122.82009,293.00535 q 0,0.29066 -0.0831,0.52319 -0.081,0.23253 -0.22007,0.39032 -0.1474,0.16401 -0.32388,0.24706 -0.17647,0.081 -0.38824,0.081 -0.19723,0 -0.34464,-0.0478 -0.1474,-0.0457 -0.29066,-0.12456 l -0.0249,0.10796 h -0.3654 v -3.23048 h 0.39031 v 1.15433 q 0.16402,-0.13495 0.3488,-0.22007 0.18477,-0.0872 0.41523,-0.0872 0.41107,0 0.64775,0.31558 0.23876,0.31557 0.23876,0.89066 z m -0.40277,0.0104 q 0,-0.41522 -0.13703,-0.62907 -0.13702,-0.21592 -0.44222,-0.21592 -0.17024,0 -0.34464,0.0747 -0.17439,0.0727 -0.32388,0.18893 v 1.32873 q 0.1661,0.0747 0.28444,0.10381 0.12041,0.0291 0.27197,0.0291 0.32388,0 0.50658,-0.21177 0.18478,-0.21384 0.18478,-0.66852 z"
         style="fill:#ffffff;stroke-width:0.26458332"
         id="path941" />
      <path
         d="m 126.96614,294.18253 h -2.09275 v -0.43392 q 0.218,-0.18685 0.43599,-0.3737 0.22007,-0.18686 0.409,-0.37163 0.39862,-0.38617 0.54603,-0.61247 0.1474,-0.22837 0.1474,-0.49204 0,-0.24083 -0.15986,-0.37578 -0.15779,-0.13703 -0.44222,-0.13703 -0.18893,0 -0.409,0.0664 -0.22007,0.0664 -0.42976,0.20346 h -0.0208 v -0.43599 q 0.14741,-0.0727 0.39239,-0.13287 0.24706,-0.0602 0.47751,-0.0602 0.47544,0 0.74534,0.23045 0.2699,0.22838 0.2699,0.62077 0,0.17647 -0.0457,0.3301 -0.0436,0.15156 -0.13079,0.28859 -0.081,0.12872 -0.19101,0.25329 -0.10796,0.12457 -0.26367,0.27612 -0.22215,0.218 -0.45883,0.42354 -0.23668,0.20346 -0.44222,0.37786 h 1.66299 z"
         style="fill:#ffffff;stroke-width:0.26458332"
         id="path943" />
      <path
         d="m 128.85959,293.01781 h -1.29552 v -0.37578 h 1.29552 z"
         style="fill:#ffffff;stroke-width:0.26458332"
         id="path945" />
      <path
         d="m 131.43193,294.18253 h -1.67337 v -0.31558 h 0.6436 v -2.07199 h -0.6436 v -0.28235 q 0.13079,0 0.28027,-0.0208 0.14949,-0.0228 0.2263,-0.0644 0.0955,-0.0519 0.14949,-0.13079 0.056,-0.081 0.0644,-0.21592 h 0.3218 v 2.78618 h 0.63115 z"
         style="fill:#ffffff;stroke-width:0.26458332"
         id="path947" />
    </g>
    <path
       style="fill:#800080;fill-opacity:1;stroke:none;stroke-width:0.40000001;stroke-miterlimit:4;stroke-dasharray:none;stroke-opacity:1"
       d="m 140.89062,285.09375 h 19.84375 V 297 h -19.84375 z"
       id="rect815-2-6-1-7" />
    <g
       aria-label="Lib 2-2"
       transform="scale(1.0053345,0.99469381)"
       style="font-style:normal;font-weight:normal;font-size:4.25193977px;line-height:1.25;font-family:sans-serif;letter-spacing:0px;word-spacing:0px;fill:#000000;fill-opacity:1;stroke:none;stroke-width:0.26458332"
       id="text819-8-2-6-5">
      <path
         d="m 144.88835,294.18253 h -1.95573 v -3.09138 h 0.41108 v 2.72597 h 1.54465 z"
         style="fill:#ffffff;stroke-width:0.26458332"
         id="path923" />
      <path
         d="m 145.68766,291.47524 h -0.44014 v -0.40485 h 0.44014 z m -0.0249,2.70729 h -0.39031 v -2.31906 h 0.39031 z"
         style="fill:#ffffff;stroke-width:0.26458332"
         id="path925" />
      <path
         d="m 148.48008,293.00535 q 0,0.29066 -0.083,0.52319 -0.081,0.23253 -0.22007,0.39032 -0.14741,0.16401 -0.32388,0.24706 -0.17647,0.081 -0.38824,0.081 -0.19723,0 -0.34464,-0.0478 -0.1474,-0.0457 -0.29066,-0.12456 l -0.0249,0.10796 h -0.3654 v -3.23048 h 0.39031 v 1.15433 q 0.16402,-0.13495 0.3488,-0.22007 0.18477,-0.0872 0.41522,-0.0872 0.41108,0 0.64776,0.31558 0.23876,0.31557 0.23876,0.89066 z m -0.40278,0.0104 q 0,-0.41522 -0.13702,-0.62907 -0.13703,-0.21592 -0.44222,-0.21592 -0.17024,0 -0.34464,0.0747 -0.17439,0.0727 -0.32388,0.18893 v 1.32873 q 0.16609,0.0747 0.28443,0.10381 0.12042,0.0291 0.27198,0.0291 0.32388,0 0.50658,-0.21177 0.18477,-0.21384 0.18477,-0.66852 z"
         style="fill:#ffffff;stroke-width:0.26458332"
         id="path927" />
      <path
         d="m 152.62613,294.18253 h -2.09275 v -0.43392 q 0.218,-0.18685 0.43599,-0.3737 0.22007,-0.18686 0.409,-0.37163 0.39862,-0.38617 0.54603,-0.61247 0.1474,-0.22837 0.1474,-0.49204 0,-0.24083 -0.15986,-0.37578 -0.15779,-0.13703 -0.44222,-0.13703 -0.18893,0 -0.409,0.0664 -0.22007,0.0664 -0.42976,0.20346 h -0.0208 v -0.43599 q 0.1474,-0.0727 0.39239,-0.13287 0.24706,-0.0602 0.47751,-0.0602 0.47544,0 0.74534,0.23045 0.2699,0.22838 0.2699,0.62077 0,0.17647 -0.0457,0.3301 -0.0436,0.15156 -0.1308,0.28859 -0.081,0.12872 -0.191,0.25329 -0.10796,0.12457 -0.26367,0.27612 -0.22215,0.218 -0.45883,0.42354 -0.23668,0.20346 -0.44222,0.37786 h 1.66299 z"
         style="fill:#ffffff;stroke-width:0.26458332"
         id="path929" />
      <path
         d="m 154.51957,293.01781 h -1.29551 v -0.37578 h 1.29551 z"
         style="fill:#ffffff;stroke-width:0.26458332"
         id="path931" />
      <path
         d="m 157.26839,294.18253 h -2.09275 v -0.43392 q 0.21799,-0.18685 0.43599,-0.3737 0.22007,-0.18686 0.409,-0.37163 0.39861,-0.38617 0.54602,-0.61247 0.14741,-0.22837 0.14741,-0.49204 0,-0.24083 -0.15987,-0.37578 -0.15778,-0.13703 -0.44221,-0.13703 -0.18893,0 -0.409,0.0664 -0.22008,0.0664 -0.42977,0.20346 h -0.0208 v -0.43599 q 0.14741,-0.0727 0.39239,-0.13287 0.24706,-0.0602 0.47752,-0.0602 0.47543,0 0.74533,0.23045 0.2699,0.22838 0.2699,0.62077 0,0.17647 -0.0457,0.3301 -0.0436,0.15156 -0.13079,0.28859 -0.081,0.12872 -0.19101,0.25329 -0.10796,0.12457 -0.26367,0.27612 -0.22214,0.218 -0.45882,0.42354 -0.23669,0.20346 -0.44222,0.37786 h 1.66299 z"
         style="fill:#ffffff;stroke-width:0.26458332"
         id="path933" />
    </g>
    <path
       style="fill:#800080;fill-opacity:1;stroke:none;stroke-width:0.40000001;stroke-miterlimit:4;stroke-dasharray:none;stroke-opacity:1"
       d="m 166.6875,285.09375 h 19.84375 V 297 H 166.6875 Z"
       id="rect815-2-6-8-0" />
    <g
       aria-label="Lib 2-3"
       transform="scale(1.0053345,0.99469381)"
       style="font-style:normal;font-weight:normal;font-size:4.25193977px;line-height:1.25;font-family:sans-serif;letter-spacing:0px;word-spacing:0px;fill:#000000;fill-opacity:1;stroke:none;stroke-width:0.26458332"
       id="text819-8-2-8-0">
      <path
         d="m 170.54834,294.18253 h -1.95573 v -3.09138 h 0.41108 v 2.72597 h 1.54465 z"
         style="fill:#ffffff;stroke-width:0.26458332"
         id="path909" />
      <path
         d="m 171.34765,291.47524 h -0.44014 v -0.40485 h 0.44014 z m -0.0249,2.70729 h -0.39032 v -2.31906 h 0.39032 z"
         style="fill:#ffffff;stroke-width:0.26458332"
         id="path911" />
      <path
         d="m 174.14006,293.00535 q 0,0.29066 -0.083,0.52319 -0.081,0.23253 -0.22007,0.39032 -0.14741,0.16401 -0.32388,0.24706 -0.17647,0.081 -0.38824,0.081 -0.19723,0 -0.34464,-0.0478 -0.1474,-0.0457 -0.29066,-0.12456 l -0.0249,0.10796 h -0.3654 v -3.23048 h 0.39031 v 1.15433 q 0.16402,-0.13495 0.34879,-0.22007 0.18478,-0.0872 0.41523,-0.0872 0.41108,0 0.64776,0.31558 0.23875,0.31557 0.23875,0.89066 z m -0.40277,0.0104 q 0,-0.41522 -0.13702,-0.62907 -0.13703,-0.21592 -0.44222,-0.21592 -0.17024,0 -0.34464,0.0747 -0.1744,0.0727 -0.32388,0.18893 v 1.32873 q 0.16609,0.0747 0.28443,0.10381 0.12042,0.0291 0.27198,0.0291 0.32388,0 0.50658,-0.21177 0.18477,-0.21384 0.18477,-0.66852 z"
         style="fill:#ffffff;stroke-width:0.26458332"
         id="path913" />
      <path
         d="m 178.28612,294.18253 h -2.09275 v -0.43392 q 0.21799,-0.18685 0.43599,-0.3737 0.22007,-0.18686 0.409,-0.37163 0.39862,-0.38617 0.54603,-0.61247 0.1474,-0.22837 0.1474,-0.49204 0,-0.24083 -0.15986,-0.37578 -0.15779,-0.13703 -0.44222,-0.13703 -0.18893,0 -0.409,0.0664 -0.22007,0.0664 -0.42976,0.20346 h -0.0208 v -0.43599 q 0.1474,-0.0727 0.39239,-0.13287 0.24706,-0.0602 0.47751,-0.0602 0.47544,0 0.74534,0.23045 0.26989,0.22838 0.26989,0.62077 0,0.17647 -0.0457,0.3301 -0.0436,0.15156 -0.1308,0.28859 -0.081,0.12872 -0.191,0.25329 -0.10796,0.12457 -0.26367,0.27612 -0.22215,0.218 -0.45883,0.42354 -0.23668,0.20346 -0.44222,0.37786 h 1.66299 z"
         style="fill:#ffffff;stroke-width:0.26458332"
         id="path915" />
      <path
         d="m 180.17956,293.01781 h -1.29551 v -0.37578 h 1.29551 z"
         style="fill:#ffffff;stroke-width:0.26458332"
         id="path917" />
      <path
         d="m 182.6564,292.69393 q 0.0997,0.0893 0.16402,0.22422 0.0644,0.13495 0.0644,0.3488 0,0.21176 -0.0768,0.38824 -0.0768,0.17647 -0.21592,0.30726 -0.15571,0.14533 -0.36748,0.21592 -0.20969,0.0685 -0.4609,0.0685 -0.25744,0 -0.50658,-0.0623 -0.24914,-0.0602 -0.409,-0.13287 v -0.43392 h 0.0311 q 0.17647,0.11627 0.41523,0.19309 0.23876,0.0768 0.4609,0.0768 0.1308,0 0.27821,-0.0436 0.1474,-0.0436 0.23875,-0.12872 0.0955,-0.0914 0.14118,-0.20138 0.0478,-0.11004 0.0478,-0.27821 0,-0.16609 -0.054,-0.27405 -0.0519,-0.11003 -0.14533,-0.17232 -0.0934,-0.0644 -0.2263,-0.0872 -0.13287,-0.0249 -0.2865,-0.0249 h -0.18686 v -0.34464 h 0.14533 q 0.31558,0 0.50243,-0.13079 0.18893,-0.13288 0.18893,-0.38617 0,-0.11211 -0.0477,-0.19515 -0.0478,-0.0851 -0.13288,-0.13911 -0.0893,-0.054 -0.191,-0.0747 -0.10173,-0.0208 -0.23045,-0.0208 -0.19724,0 -0.41938,0.0706 -0.22215,0.0706 -0.41938,0.19931 h -0.0208 v -0.43391 q 0.14741,-0.0727 0.3924,-0.13288 0.24706,-0.0623 0.47751,-0.0623 0.2263,0 0.39862,0.0415 0.17232,0.0415 0.31142,0.13288 0.14948,0.0996 0.2263,0.24083 0.0768,0.14118 0.0768,0.3301 0,0.25745 -0.1827,0.45053 -0.18063,0.191 -0.42769,0.24083 v 0.0291 q 0.0996,0.0166 0.22838,0.0706 0.12872,0.0519 0.21799,0.1308 z"
         style="fill:#ffffff;stroke-width:0.26458332"
         id="path919" />
    </g>
    <path
       style="fill:#800080;stroke:#800080;stroke-width:0.5291667;stroke-linecap:round;stroke-linejoin:miter;stroke-miterlimit:4;stroke-dasharray:none;stroke-opacity:1"
       d="m 150.54792,280.59582 -25.66459,5.02709"
       id="path842-5-6"
       inkscape:connector-curvature="0"
       sodipodi:nodetypes="cc" />
    <path
       style="fill:#800080;stroke:#800080;stroke-width:0.5291667;stroke-linecap:round;stroke-linejoin:miter;stroke-miterlimit:4;stroke-dasharray:none;stroke-opacity:1"
       d="m 151.87083,280.59582 25.13542,5.02709"
       id="path842-5-3-34"
       inkscape:connector-curvature="0"
       sodipodi:nodetypes="cc" />
    <path
       style="fill:#800080;stroke:#800080;stroke-width:0.5291667;stroke-linecap:round;stroke-linejoin:miter;stroke-miterlimit:4;stroke-dasharray:none;stroke-opacity:1"
       d="m 150.8125,281.12499 v 3.96875"
       id="path842-5-3-3-2"
       inkscape:connector-curvature="0"
       sodipodi:nodetypes="cc" />
    <path
       style="fill:#800080;stroke:#800080;stroke-width:0.5291667;stroke-linecap:round;stroke-linejoin:miter;stroke-miterlimit:4;stroke-dasharray:none;stroke-opacity:1"
       d="m 95.25,265.24999 39.6875,7.9375"
       id="path842-55"
       inkscape:connector-curvature="0"
       sodipodi:nodetypes="cc" />
  </g>
</svg>
